<svg width="678" height="678" viewBox="0 0 678 678" fill="none" xmlns="http://www.w3.org/2000/svg">
<rect width="678" height="678" fill="white"/>
<g clip-path="url(#clip0)">
<path d="M339.5 357.433L435.123 353.847L339.5 218.785V357.433Z" fill="#0D79BE"/>
<path d="M339.501 357.433L243.878 353.847L339.501 218.785V357.433Z" fill="#3790BB"/>
<path d="M339.5 357.429L61 214L136.303 465L267.783 417.19L339.5 357.429Z" fill="#F69226"/>
<path d="M339.5 357.429L618.001 214L542.698 465L411.217 417.19L339.5 357.429Z" fill="#D06A29"/>
<path d="M339.501 357.429L542.698 465H136.303L339.501 357.429Z" fill="#ED7723"/>
<path d="M339.5 357.433L435.123 353.847L339.5 218.785V357.433Z" fill="#0D79BE"/>
<path d="M339.501 357.433L243.878 353.847L339.501 218.785V357.433Z" fill="#3790BB"/>
<path d="M542.698 465L618.001 214L339.5 357.429L542.698 465Z" fill="#D06A29"/>
<path d="M339.5 357.429L61 214L136.303 465L339.5 357.429Z" fill="#F69226"/>
<path d="M339.501 357.429L542.698 465H136.303L339.501 357.429Z" fill="#ED7723"/>
</g>
<defs>
<clipPath id="clip0">
<rect x="61" y="214" width="557" height="251" fill="white"/>
</clipPath>
</defs>
</svg>
