<svg width="678" height="678" viewBox="0 0 678 678" fill="none" xmlns="http://www.w3.org/2000/svg">
<g clip-path="url(#clip0)">
<path d="M339.5 358.433L440.616 354.647L339.5 212.052V358.433Z" fill="#0D79BE"/>
<path d="M339.501 358.433L238.385 354.647L339.501 212.052V358.433Z" fill="#3790BB"/>
<path d="M339.5 358.429L45 207L124.629 472L263.663 421.524L339.5 358.429Z" fill="#F69226"/>
<path d="M339.5 358.429L634.001 207L554.372 472L415.337 421.524L339.5 358.429Z" fill="#D06A29"/>
<path d="M339.501 358.429L554.372 472H124.629L339.501 358.429Z" fill="#ED7723"/>
<path d="M339.5 358.433L440.616 354.647L339.5 212.052V358.433Z" fill="#0D79BE"/>
<path d="M339.501 358.433L238.385 354.647L339.501 212.052V358.433Z" fill="#3790BB"/>
<path d="M554.372 472L634.001 207L339.5 358.429L554.372 472Z" fill="#D06A29"/>
<path d="M339.5 358.429L45 207L124.629 472L339.5 358.429Z" fill="#F69226"/>
<path d="M339.501 358.429L554.372 472H124.629L339.501 358.429Z" fill="#ED7723"/>
</g>
<defs>
<clipPath id="clip0">
<rect x="45" y="207" width="589" height="265" fill="white"/>
</clipPath>
</defs>
</svg>
