<svg width="125" height="38" viewBox="0 0 125 38" fill="none" xmlns="http://www.w3.org/2000/svg">
<path d="M23.0107 20.4277L28.4249 20.2246L23.0107 12.5731V20.4277Z" fill="#0D79BE"/>
<path d="M23.0107 20.4277L17.5966 20.2246L23.0107 12.5731V20.4277Z" fill="#3790BB"/>
<path d="M34.5159 26.5214L38.7796 12.3017L23.0107 20.4272L34.5159 26.5214Z" fill="#D06A29"/>
<path d="M23.0106 20.4272L7.24182 12.3017L11.5055 26.5214L23.0106 20.4272Z" fill="#F69226"/>
<path d="M23.0106 20.4272L34.5158 26.5213H11.5055L23.0106 20.4272Z" fill="#ED7723"/>
<path d="M58.8115 26.5218L63.4136 10.9479H59.556L56.8489 21.5787L53.7357 10.9479H51.0286L47.9155 21.5787L45.1407 10.9479H41.2831L45.8851 26.5218H49.5397L52.2468 15.8232L55.1569 26.5218H58.8115Z" fill="white"/>
<path d="M73.2269 14.4688V26.183H70.1814V24.6934C69.3693 25.5736 67.9481 26.4539 66.0531 26.4539C63.4814 26.4539 62.2632 25.0319 62.2632 22.7974V20.2921L63.9551 14.4688H65.3763V21.5786C65.3763 23.2037 66.2561 23.7454 67.542 23.7454C68.7602 23.7454 69.7077 23.0683 70.1814 22.3911V14.4688H73.2269Z" fill="white"/>
<path d="M62.3309 14.4688H62.2632V14.8077L62.3309 14.4688Z" fill="white"/>
<path d="M86.0856 17.8541V26.1151H82.9724V19.073C82.9724 17.4479 82.0926 16.9062 80.8067 16.9062C79.5885 16.9062 78.641 17.5833 78.1673 18.2604V26.1828H75.1218V14.4685H78.1673V15.9582C78.9118 15.0779 80.4007 14.1299 82.2956 14.1299C84.7997 14.1299 86.0856 15.6196 86.0856 17.8541Z" fill="white"/>
<path d="M98.8765 17.8541V26.1151H95.7633V19.073C95.7633 17.4479 94.8835 16.9062 93.5977 16.9062C92.3795 16.9062 91.432 17.5833 90.9582 18.2604V26.1828H87.8451V14.4685H90.9582V15.9582C91.7027 15.0779 93.1916 14.1299 95.0866 14.1299C97.6583 14.1299 98.8765 15.6196 98.8765 17.8541Z" fill="white"/>
<path d="M103.817 9.99997V26.1833H100.771V9.99997H103.817Z" fill="white"/>
<path d="M113.224 25.9799C114.984 25.5059 116.608 24.4902 117.488 23.1359L115.593 21.5108C115.051 22.3911 113.833 23.1359 112.886 23.4068C110.991 23.9485 109.502 23.0682 108.96 21.7817L117.352 19.5472L117.149 18.87C116.134 15.2136 113.224 13.2499 109.84 14.1979C106.389 15.1459 104.697 18.3961 105.576 21.714C106.524 25.3027 109.772 26.9278 113.224 25.9799ZM113.901 18.2606L108.351 19.7503C108.148 18.5992 108.622 17.1095 110.449 16.5678C112.412 16.0261 113.562 17.1772 113.901 18.2606Z" fill="white"/>
</svg>
