<svg width="91" height="91" viewBox="0 0 91 91" fill="none" xmlns="http://www.w3.org/2000/svg">
<path d="M90.3011 81.351V32.8191L42.7637 5.76855L0 32.8191V81.351H90.3011Z" fill="#0F8BC9"/>
<rect x="12.7295" width="65.2396" height="78.367" rx="2.78462" fill="#F4F4F4"/>
<path d="M45.25 63.4491L0 32.8184V86.1239C0 88.3209 1.78102 90.1019 3.97802 90.1019H86.522C88.719 90.1019 90.5 88.3209 90.5 86.1239V32.8184L45.25 63.4491Z" fill="#15A6EF"/>
<g opacity="0.86">
<path d="M45.2139 31.069L51.8602 30.8197L45.2139 21.4277V31.069Z" fill="#0D79BE"/>
<path d="M45.2147 31.069L38.5684 30.8197L45.2147 21.4277V31.069Z" fill="#3790BB"/>
<path d="M59.3373 38.5488L64.5713 21.0947L45.2139 31.0685L59.3373 38.5488Z" fill="#D06A29"/>
<path d="M45.2149 31.0685L25.8574 21.0947L31.0914 38.5488L45.2149 31.0685Z" fill="#F69226"/>
<path d="M45.2143 31.0684L59.3377 38.5487H31.0908L45.2143 31.0684Z" fill="#ED7723"/>
</g>
</svg>
