<svg width="28" height="28" viewBox="0 0 28 28" fill="none" xmlns="http://www.w3.org/2000/svg">
<path fill-rule="evenodd" clip-rule="evenodd" d="M25.5434 5.81132C29.8496 11.9703 28.3477 20.4539 22.1887 24.7602C17.6391 27.9411 11.8212 27.9528 7.35563 25.2593C6.83232 25.4907 6.2611 25.6823 5.68579 25.8297C5.05419 25.9843 4.37687 26.1433 3.68607 26.1651C2.99976 26.2327 2.35018 26.2042 1.73733 26.0798C1.36683 26.07 0.987334 25.9687 0.653421 25.8631C0.557429 25.8263 0.473988 25.7999 0.390547 25.7735C0.3071 25.747 0.223653 25.7206 0.127654 25.6838C0.0315882 25.6471 -0.0688341 25.5645 0.0638241 25.5054C0.549152 25.2728 0.979638 24.9532 1.36441 24.6382C1.79054 24.2728 2.12496 23.9165 2.40931 23.5189C2.83142 22.9073 3.12587 22.2667 3.37069 21.5894C3.32669 21.5285 3.28303 21.4673 3.23984 21.4055C-1.06637 15.2465 0.435516 6.76289 6.59451 2.45664C12.7535 -1.8496 21.2371 -0.347625 25.5434 5.81132ZM21.0506 9.66799C21.7319 9.58786 22.381 9.41011 22.9849 9.14617C22.5335 9.81073 21.9624 10.3945 21.3044 10.8624C21.5178 15.5252 17.9851 20.7238 11.7321 20.7238C9.83069 20.7238 8.05987 20.1751 6.56949 19.2345C8.35603 19.4418 10.1398 18.9537 11.5557 17.8609C10.081 17.834 8.83755 16.8758 8.40938 15.5588C8.93741 15.6585 9.45655 15.6288 9.93055 15.5023C8.31089 15.1824 7.19259 13.7456 7.22952 12.2098C7.683 12.4582 8.20282 12.607 8.75411 12.6245C7.25483 11.6374 6.83008 9.68819 7.71241 8.19814C9.37379 10.2039 11.8553 11.5236 14.6534 11.6617C14.1623 9.58854 15.7601 7.59148 17.9344 7.59148C18.903 7.59148 19.7791 7.99412 20.3927 8.63849C21.1601 8.48968 21.881 8.21363 22.5314 7.83387C22.2804 8.60819 21.7462 9.25794 21.0506 9.66799Z" fill="#1DA1F3"/>
</svg>
